<?xml version="1.0" encoding="utf-8"?>
<!-- Generator: Adobe Illustrator 13.0.0, SVG Export Plug-In . SVG Version: 6.00 Build 14948)  -->
<!DOCTYPE svg PUBLIC "-//W3C//DTD SVG 1.1//EN" "http://www.w3.org/Graphics/SVG/1.1/DTD/svg11.dtd">
<svg version="1.1" id="Layer_1" xmlns="http://www.w3.org/2000/svg" xmlns:xlink="http://www.w3.org/1999/xlink" x="0px" y="0px"
	 width="300px" height="400px" viewBox="147.14 220.445 300 400" enable-background="new 147.14 220.445 300 400"
	 xml:space="preserve">
	<g>
	<path fill="#919191" stroke="#646464" stroke-width="2.126" stroke-linejoin="round" stroke-miterlimit="3.8637" d="M286.12,261.782
		c0,0-10.174-16.715-12.354-18.896c-2.18-2.18-7.268-9.447-15.262-12.354c-7.994-2.907-19.622-5.087-19.622-5.087
		s-2.907,2.18-13.808,5.814c-10.901,3.633-20.349,5.087-29.796,10.174c-9.448,5.087-11.628,5.087-16.715,15.261
		c-5.087,10.174-16.715,24.709-17.442,31.25c-0.727,6.541,6.541,43.604,8.721,43.604s14.535,1.453,14.535,1.453s5.814,0,13.808,0
		s26.89-1.453,26.89-1.453s10.174,11.627,10.901,17.441s4.36,12.355,5.087,15.989c0.727,3.633,7.267,6.54,9.447,11.627
		c2.18,5.088,5.087,5.814,5.087,10.901s-2.18,7.268-2.18,10.901s-1.454,10.901-1.454,10.901l18.895,7.267
		c1.454,3.634,1.454,15.262,1.454,18.169s0,2.907,0,2.907s1.454-2.907,0,0c-1.454,2.906-15.988,23.255-15.988,23.255
		s2.18,7.268,2.18,10.175s4.36,13.081-7.994,22.529c-12.354,9.447-13.081,11.627-18.895,18.895s-16.715,9.448-11.628,27.616
		c5.087,18.169,2.907,26.163,8.721,31.977c5.814,5.813,13.808,13.081,20.349,16.715c6.541,3.634,16.715,13.809,30.523,16.715
		c13.808,2.907,31.25,2.181,37.79,2.907c6.541,0.727,23.982,0,29.069,0.727c5.088,0.727,10.901,12.354,17.442-1.453
		c6.54-13.809,13.081-13.809,12.354-24.709c-0.727-10.901,4.36-16.715-7.268-16.715s-2.906-0.728-27.616-0.728
		c-24.709,0-25.436,1.454-29.796-2.906c-4.361-4.36-5.088-15.262-12.355-15.988c-7.267-0.727-21.801-3.634-21.801-3.634
		s-3.634,2.907-2.907-7.268c0.727-10.175,1.454-23.256,2.907-25.436c1.453-2.181-1.454-5.814,5.087-15.988
		c6.541-10.175,7.994-18.896,7.994-22.529s2.18-10.901-4.36-13.081c-6.541-2.181-13.808,4.36-7.994-6.541
		c5.814-10.9,2.18-10.174,7.994-17.441s7.268-13.081,7.268-13.081s3.633-1.454,10.901,5.813s9.447,10.175,11.628,10.901
		s-2.907-13.081,6.54,0.727c9.448,13.808,5.088,13.081,9.448,13.808c4.36,0.728,14.534,5.088,14.534,5.088s5.088,1.453,5.814-0.728
		c0.727-2.18,5.814,7.994,0.727-7.994c-5.087-15.987-7.268-19.621-7.268-19.621s0-3.634-3.633-2.907
		c-3.635,0.727-5.088,5.087-7.268,0c-2.181-5.087-4.361-8.721-3.635-12.354c0.728-3.634,3.635-11.628,3.635-11.628
		s4.359-7.268,6.54-7.268s7.994-2.18,10.901-2.18c2.906,0-4.36-1.454,10.174,0c14.535,1.453,27.617,0,27.617,0
		s-1.454,1.453,2.906-3.634c4.36-5.088,10.174-13.082,15.262-18.169c5.087-5.087,20.349-16.715,20.349-16.715
		s7.994-2.907,0.727-10.901s-17.442-23.256-17.442-30.523c0-7.268-0.727-10.175-1.453-18.896s-0.727-20.349-9.447-24.709
		s-10.9-9.448-18.895-7.994s-5.814-5.087-18.169,5.814c-12.354,10.901-18.169,4.36-31.977,16.715s-19.622,20.349-25.437,26.163
		c-5.813,5.814-21.075,6.541-20.348-5.814s1.454-15.988,0.727-18.895c-0.727-2.907-2.907-13.082-2.18-15.262
		c0.727-2.18,0.727-2.18,0.727-2.18L286.12,261.782z"/>
	</g>
</svg>
