<?xml version="1.0" standalone="no"?>
<!DOCTYPE svg PUBLIC "-//W3C//DTD SVG 1.1//EN"
"http://www.w3.org/Graphics/SVG/1.1/DTD/svg11.dtd">
<svg height="989" version="1.1" viewBox="0 0 1166 989" width="1166" xmlns="http://www.w3.org/2000/svg">
  <!--<polygon points="305.5,968.8 303.2,968.9 300.9,969.0 298.7,969.2 296.4,969.3 294.1,969.4 291.9,969.6 289.7,969.7 287.4,969.8 285.2,970.0 283.0,970.1 280.8,970.2 278.6,970.4 276.4,970.5 274.3,970.7 272.1,970.8 270.0,970.9 267.8,971.1 265.7,971.2 263.6,971.3 261.5,971.5 259.4,971.6 257.4,971.7 255.3,971.9 253.2,972.0 251.2,972.1 249.2,972.3 247.2,972.4 245.2,972.5 243.2,972.6 241.2,972.8 239.2,972.9 237.3,973.0 235.3,973.2 233.4,973.3 231.5,973.4 229.5,973.5 227.7,973.7 225.8,973.8 223.9,973.9 222.0,974.0 220.2,974.2 218.3,974.3 216.5,974.4 214.7,974.5 212.9,974.7 211.1,974.8 209.3,974.9 207.5,975.0 205.8,975.1 204.0,975.3 202.3,975.4 200.6,975.5 198.8,975.6 197.1,975.7 195.4,975.9 193.8,976.0 192.1,976.1 190.4,976.2 188.8,976.3 187.1,976.4 185.5,976.5 183.9,976.7 182.3,976.8 180.7,976.9 179.1,977.0 177.5,977.1 176.0,977.2 174.4,977.3 172.9,977.4 171.3,977.5 169.8,977.6 168.3,977.8 166.8,977.9 165.3,978.0 163.8,978.1 162.3,978.2 160.9,978.3 159.4,978.4 158.0,978.5 156.5,978.6 155.1,978.7 153.7,978.8 152.2,978.9 150.8,979.0 149.4,979.1 148.1,979.2 146.7,979.3 145.3,979.4 143.9,979.5 142.6,979.6 141.2,979.7 139.9,979.8 138.5,979.9 137.2,980.0 135.9,980.1 134.6,980.2 133.2,980.3 131.9,980.4 130.6,980.5 129.3,980.6 128.1,980.7 126.8,980.8 125.5,980.9 124.2,981.0 123.0,981.1 121.7,981.2 120.5,981.2 119.2,981.3 118.0,981.4 116.7,981.5 115.5,981.6 114.2,981.7 113.0,981.8 111.8,981.9 110.5,982.0 109.3,982.1 108.1,982.2 106.9,982.3 105.7,982.4 104.5,982.5 103.3,982.5 102.0,982.6 100.8,982.7 99.6,982.8 98.4,982.9 97.2,983.0 96.0,983.1 94.8,983.2 93.6,983.3 92.4,983.4 91.2,983.5 90.0,983.6 88.8,983.6 87.6,983.7 86.4,983.8 85.2,983.9 84.0,984.0 82.8,984.1 81.6,984.2 80.4,984.3 79.2,984.4 78.0,984.5 76.7,984.6 75.5,984.7 74.3,984.8 73.1,984.9 71.8,985.0 70.6,985.1 69.4,985.2 68.1,985.3 66.9,985.4 65.6,985.5 64.4,985.6 63.1,985.7 61.8,985.8 60.6,985.9 59.3,986.0 58.0,986.1 56.7,986.2 55.4,986.3 54.1,986.4 52.8,986.5 51.5,986.6 50.2,986.7 48.8,986.8 47.5,986.9 46.1,987.0 44.8,987.1 43.4,987.2 42.0,987.3 40.7,987.4 39.3,987.5 37.9,987.7 36.5,987.8 35.0,987.9 33.6,988.0 32.1,988.1 30.7,988.2 29.2,988.3 27.7,988.5 26.2,988.6 24.7,988.7 23.2,988.8 21.7,988.9 20.1,989.1 18.5,989.2 16.9,989.3 15.3,989.4 13.7,989.5 12.0,989.6 12.0,989.6 11.8,985.4 11.6,981.2 11.5,977.2 11.3,973.1 11.2,969.1 11.0,965.1 10.9,961.2 10.7,957.2 10.6,953.3 10.4,949.4 10.3,945.5 10.1,941.7 10.0,937.8 9.8,934.0 9.7,930.2 9.6,926.4 9.4,922.6 9.3,918.8 9.1,915.0 9.0,911.2 8.8,907.5 8.7,903.8 8.6,900.0 8.4,896.3 8.3,892.6 8.2,888.9 8.0,885.2 7.9,881.5 7.7,877.8 7.6,874.1 7.5,870.5 7.3,866.8 7.2,863.2 7.1,859.5 6.9,855.9 6.8,852.3 6.6,848.6 6.5,845.0 6.4,841.4 6.2,837.8 6.1,834.2 6.0,830.6 5.8,827.0 5.7,823.4 5.6,819.9 5.4,816.3 5.3,812.7 5.2,809.1 5.0,805.6 4.9,802.0 4.8,798.4 4.6,794.9 4.5,791.3 4.4,787.8 4.2,784.2 4.1,780.7 4.0,777.1 3.8,773.6 3.7,770.0 3.6,766.5 3.4,762.9 3.3,759.4 3.2,755.8 3.0,752.3 2.9,748.7 2.8,745.2 2.7,741.6 2.5,738.1 2.4,734.5 2.3,730.9 2.1,727.3 2.0,723.8 1.9,720.2 1.7,716.6 1.6,713.0 1.5,709.4 1.3,705.7 1.2,702.1 1.1,698.4 0.9,694.8 0.8,691.1 0.7,687.4 0.5,683.6 0.4,679.8 0.3,676.0 0.1,672.2 0.0,668.2 0.0,664.1 0.2,659.9 0.6,655.9 0.9,652.1 1.3,648.2 1.6,644.4 2.0,640.7 2.4,636.9 2.7,633.2 3.1,629.5 3.4,625.8 3.8,622.1 4.1,618.4 4.5,614.7 4.9,611.0 5.2,607.3 5.6,603.6 5.9,599.9 6.3,596.2 6.7,592.5 7.0,588.7 7.4,585.0 7.8,581.2 8.2,577.4 8.5,573.6 8.9,569.7 9.4,565.7 10.0,561.7 10.7,557.8 11.4,553.9 12.2,550.1 12.9,546.4 13.6,542.6 14.3,538.8 15.0,535.1 15.7,531.3 16.4,527.5 17.1,523.8 17.8,520.0 18.6,516.2 19.3,512.4 20.0,508.5 20.7,504.7 21.5,500.8 22.2,496.9 23.0,492.9 23.8,488.9 24.5,484.9 25.3,480.8 26.2,476.6 27.0,472.2 28.2,467.7 29.6,463.3 31.1,459.1 32.6,455.0 34.1,451.0 35.6,446.9 37.1,442.9 38.6,438.9 40.1,434.9 41.6,430.8 43.1,426.7 44.7,422.5 46.2,418.3 47.9,414.0 49.6,409.5 51.5,404.8 54.0,400.0 57.0,395.6 60.0,391.7 62.8,388.0 65.6,384.5 68.3,381.0 71.0,377.6 73.7,374.3 76.3,371.0 78.9,367.7 81.5,364.4 84.2,361.1 87.0,357.8 89.9,354.7 92.7,351.8 95.5,348.9 98.2,346.2 100.9,343.4 103.6,340.7 106.2,338.0 108.8,335.4 111.4,332.7 114.0,330.1 116.6,327.5 119.1,324.9 121.7,322.4 124.2,319.8 126.7,317.3 129.3,314.7 131.9,312.2 134.6,309.8 137.2,307.4 139.8,305.1 142.4,302.8 144.9,300.5 147.4,298.3 149.9,296.0 152.4,293.8 154.9,291.6 157.4,289.4 159.8,287.2 162.3,285.0 164.7,282.9 167.1,280.7 169.5,278.6 172.0,276.4 174.4,274.3 176.8,272.1 179.3,270.0 181.7,267.9 184.2,265.9 186.6,263.8 189.0,261.8 191.4,259.7 193.8,257.7 196.2,255.6 198.6,253.6 201.0,251.6 203.5,249.5 205.9,247.5 208.3,245.4 210.8,243.4 213.3,241.3 215.9,239.3 218.5,237.4 221.1,235.5 223.6,233.7 226.2,231.8 228.7,230.0 231.2,228.2 233.6,226.4 236.1,224.7 238.6,222.9 241.1,221.1 243.5,219.3 246.0,217.6 248.4,215.8 250.9,214.1 253.4,212.3 255.9,210.5 258.4,208.8 260.9,207.1 263.4,205.4 265.9,203.7 268.4,202.0 270.8,200.3 273.3,198.7 275.8,197.0 278.3,195.3 280.8,193.7 283.3,192.0 285.7,190.3 288.2,188.7 290.7,187.0 293.2,185.3 295.8,183.6 298.3,182.0 300.8,180.3 303.4,178.6 306.0,176.8 308.6,175.1 311.3,173.3 314.1,171.6 317.1,169.9 320.0,168.5 322.8,167.1 325.6,165.7 328.4,164.4 331.1,163.0 333.9,161.7 336.6,160.4 339.3,159.0 342.0,157.7 344.7,156.4 347.4,155.1 350.1,153.8 352.8,152.5 355.5,151.2 358.1,149.9 360.8,148.6 363.5,147.3 366.2,146.0 369.0,144.7 371.7,143.4 374.4,142.1 377.2,140.8 380.0,139.5 382.8,138.1 385.7,136.8 388.7,135.5 391.8,134.4 394.7,133.3 397.7,132.3 400.6,131.3 403.5,130.2 406.4,129.2 409.3,128.2 412.2,127.2 415.1,126.2 418.0,125.2 421.0,124.1 424.0,123.1 427.1,122.1 430.3,121.2 433.5,120.5 436.6,119.9 439.6,119.3 442.6,118.7 445.5,118.1 448.4,117.5 451.3,117.0 454.2,116.4 457.0,115.9 459.8,115.3 462.7,114.8 465.5,114.3 468.3,113.7 471.1,113.2 473.9,112.7 476.7,112.1 479.5,111.6 482.3,111.1 485.1,110.5 488.0,110.0 490.9,109.6 493.7,109.2 496.6,108.8 499.4,108.4 502.2,108.1 505.0,107.7 507.7,107.4 510.5,107.0 513.2,106.7 516.0,106.4 518.7,106.0 521.5,105.7 524.2,105.4 527.0,105.0 529.8,104.7 532.5,104.4 535.4,104.1 538.2,103.7 541.1,103.4 544.1,103.1 547.2,102.9 550.3,102.9 553.2,103.0 556.1,103.2 558.9,103.3 561.6,103.5 564.3,103.7 567.0,103.8 569.6,104.0 572.3,104.2 574.9,104.3 577.4,104.5 580.0,104.6 582.6,104.8 585.1,105.0 587.6,105.1 590.1,105.3 592.7,105.5 595.2,105.6 597.6,105.8 600.1,106.0 602.6,106.1 605.1,106.3 607.6,106.5 610.1,106.7 612.7,106.8 615.3,107.1 617.9,107.4 620.4,107.8 622.9,108.3 625.3,108.7 627.7,109.1 630.0,109.6 632.4,110.0 634.7,110.4 636.9,110.8 639.2,111.3 641.4,111.7 643.7,112.1 645.9,112.5 648.1,112.9 650.3,113.4 652.5,113.8 654.7,114.2 656.8,114.6 659.0,115.0 661.2,115.4 663.3,115.8 665.5,116.3 667.7,116.7 669.9,117.1 672.2,117.7 674.4,118.3 676.5,119.0 678.5,119.6 680.5,120.2 682.5,120.9 684.4,121.5 686.3,122.1 688.2,122.7 690.1,123.3 691.9,123.9 693.8,124.5 695.6,125.0 697.4,125.6 699.1,126.2 700.9,126.7 702.6,127.3 704.3,127.8 706.0,128.4 707.7,128.9 709.3,129.5 711.0,130.0 712.6,130.5 714.2,131.0 715.7,131.5 717.3,132.0 718.7,132.5 720.2,132.9 721.6,133.2 723.1,133.5 724.6,133.8 726.2,134.0 727.7,134.3 729.3,134.6 730.9,134.9 732.4,135.1 734.0,135.4 735.6,135.7 737.1,136.0 738.7,136.3 740.3,136.5 741.9,136.8 743.4,137.1 745.0,137.4 746.5,137.6 748.1,137.9 749.7,138.2 751.2,138.4 752.8,138.7 754.3,139.0 755.9,139.3 757.4,139.5 758.9,139.8 760.5,140.1 762.0,140.4 763.6,140.6 765.1,140.9 766.6,141.2 768.1,141.6 769.6,141.9 771.1,142.2 772.6,142.5 774.1,142.8 775.5,143.1 777.0,143.4 778.4,143.7 779.8,144.0 781.3,144.3 782.7,144.6 784.1,144.9 785.5,145.2 786.9,145.5 788.2,145.7 789.6,146.0 791.0,146.3 792.3,146.6 793.7,146.9 795.0,147.2 796.3,147.4 797.6,147.7 798.9,148.0 800.2,148.2 801.5,148.5 802.8,148.8 804.0,149.0 805.2,149.3 806.4,149.5 807.6,149.7 808.8,149.9 810.1,150.0 811.3,150.2 812.5,150.3 813.7,150.5 814.9,150.7 816.1,150.8 817.3,151.0 818.5,151.1 819.7,151.3 820.9,151.5 822.1,151.6 823.3,151.8 824.4,151.9 825.6,152.1 826.7,152.2 827.8,152.4 828.9,152.5 830.0,152.7 831.1,152.8 832.2,152.9 833.2,153.1 834.2,153.2 835.2,153.3 836.2,153.4 837.1,153.6 838.0,153.7 838.8,153.7 839.6,153.7 840.4,153.6 841.2,153.3 842.1,153.1 843.0,152.9 844.0,152.6 844.9,152.4 845.9,152.1 846.9,151.8 847.9,151.6 848.9,151.3 850.0,151.0 851.0,150.7 852.1,150.5 853.1,150.2 854.2,149.9 855.2,149.6 856.3,149.3 857.4,149.0 858.4,148.7 859.5,148.4 860.6,148.1 861.6,147.9 862.7,147.6 863.8,147.3 864.8,147.0 865.9,146.7 866.9,146.4 868.0,146.1 869.0,145.8 870.1,145.6 871.1,145.3 872.1,145.0 873.0,144.7 873.9,144.4 874.8,144.1 875.6,143.7 876.5,143.2 877.4,142.7 878.3,142.2 879.3,141.6 880.2,141.1 881.2,140.5 882.2,140.0 883.2,139.4 884.2,138.8 885.2,138.2 886.2,137.6 887.3,137.1 888.3,136.5 889.4,135.9 890.4,135.3 891.5,134.7 892.5,134.0 893.6,133.4 894.7,132.8 895.7,132.2 896.8,131.6 897.9,131.0 898.9,130.4 900.0,129.8 901.0,129.2 902.1,128.5 903.1,127.9 904.2,127.3 905.2,126.8 906.2,126.2 907.1,125.6 907.9,125.0 908.7,124.2 909.6,123.4 910.5,122.6 911.4,121.7 912.4,120.8 913.3,119.9 914.3,119.0 915.3,118.1 916.3,117.2 917.3,116.2 918.3,115.3 919.3,114.3 920.4,113.3 921.4,112.3 922.5,111.3 923.6,110.3 924.6,109.3 925.7,108.3 926.8,107.3 927.9,106.2 929.0,105.2 930.1,104.1 931.3,103.1 932.4,102.0 933.4,101.0 934.5,99.9 935.5,98.8 936.6,97.6 937.7,96.4 938.8,95.2 939.9,94.0 941.0,92.8 942.2,91.5 943.3,90.2 944.5,88.9 945.7,87.6 946.9,86.3 948.1,85.0 949.3,83.6 950.6,82.3 951.8,80.9 953.1,79.5 954.4,78.1 955.6,76.7 957.0,75.2 958.3,73.8 959.6,72.3 961.0,70.8 962.3,69.3 963.7,67.8 965.1,66.3 966.5,64.7 968.0,63.2 969.4,61.6 970.9,59.9 972.4,58.3 974.0,56.6 975.7,54.9 977.6,53.2 979.4,51.7 981.1,50.2 982.9,48.8 984.6,47.3 986.4,45.8 988.1,44.4 989.9,42.9 991.6,41.5 993.3,40.0 995.1,38.6 996.8,37.1 998.6,35.7 1000.3,34.2 1002.1,32.8 1003.8,31.3 1005.6,29.8 1007.4,28.4 1009.1,26.9 1010.9,25.5 1012.6,24.0 1014.4,22.5 1016.2,21.1 1017.9,19.6 1019.7,18.2 1021.4,16.7 1023.2,15.2 1024.9,13.8 1026.7,12.4 1028.4,10.9 1030.1,9.5 1031.8,8.1 1033.5,6.7 1035.2,5.3 1036.8,3.9 1038.4,2.6 1040.0,1.2 1041.4,0.0 1041.4,0.0 1042.1,0.7 1042.8,1.4 1043.6,2.1 1044.3,2.9 1045.1,3.6 1045.9,4.4 1046.7,5.1 1047.5,5.8 1048.3,6.6 1049.1,7.4 1049.9,8.1 1050.7,8.9 1051.5,9.6 1052.3,10.4 1053.1,11.1 1054.0,11.9 1054.8,12.7 1055.6,13.4 1056.4,14.2 1057.2,14.9 1058.0,15.7 1058.8,16.4 1059.7,17.2 1060.5,18.0 1061.3,18.7 1062.1,19.5 1062.9,20.2 1063.7,21.0 1064.5,21.8 1065.4,22.5 1066.2,23.3 1067.0,24.0 1067.8,24.8 1068.6,25.6 1069.4,26.3 1070.3,27.1 1071.1,27.9 1071.9,28.6 1072.7,29.4 1073.6,30.2 1074.4,30.9 1075.2,31.7 1076.0,32.5 1076.9,33.3 1077.7,34.1 1078.6,34.9 1079.4,35.7 1080.3,36.5 1081.1,37.3 1082.0,38.1 1082.8,38.9 1083.7,39.7 1084.6,40.5 1085.5,41.4 1086.4,42.2 1087.3,43.1 1088.2,44.0 1089.1,44.9 1090.1,45.8 1091.0,46.8 1092.0,47.7 1093.0,48.8 1094.1,49.9 1095.0,51.2 1095.8,52.5 1096.5,53.7 1097.2,54.9 1097.9,56.0 1098.5,57.2 1099.2,58.3 1099.8,59.4 1100.5,60.6 1101.1,61.7 1101.7,62.8 1102.4,63.9 1103.0,65.0 1103.6,66.1 1104.2,67.2 1104.8,68.3 1105.4,69.3 1106.0,70.4 1106.6,71.5 1107.2,72.6 1107.8,73.7 1108.5,74.8 1109.1,75.9 1109.7,77.0 1110.3,78.1 1110.9,79.3 1111.5,80.4 1112.1,81.5 1112.7,82.7 1113.3,83.9 1113.9,85.1 1114.4,86.3 1115.0,87.5 1115.5,88.7 1116.0,89.8 1116.5,91.0 1117.1,92.2 1117.6,93.3 1118.1,94.5 1118.6,95.7 1119.1,96.8 1119.7,98.0 1120.2,99.2 1120.7,100.3 1121.2,101.5 1121.7,102.7 1122.3,103.8 1122.8,105.0 1123.3,106.2 1123.8,107.4 1124.4,108.6 1124.9,109.8 1125.4,111.0 1125.9,112.2 1126.5,113.4 1127.0,114.6 1127.5,115.8 1128.1,117.0 1128.6,118.2 1129.2,119.4 1129.7,120.7 1130.2,121.9 1130.8,123.1 1131.3,124.4 1131.9,125.6 1132.4,126.9 1133.0,128.1 1133.6,129.4 1134.1,130.7 1134.7,131.9 1135.2,133.2 1135.8,134.5 1136.4,135.8 1136.9,137.1 1137.5,138.4 1138.1,139.7 1138.6,141.0 1139.2,142.3 1139.8,143.6 1140.4,144.9 1140.9,146.3 1141.5,147.6 1142.1,148.9 1142.7,150.3 1143.3,151.6 1143.9,153.0 1144.5,154.3 1145.0,155.7 1145.6,157.1 1146.2,158.4 1146.8,159.8 1147.4,161.2 1148.0,162.6 1148.7,164.0 1149.3,165.4 1149.9,166.8 1150.5,168.2 1151.1,169.6 1151.7,171.1 1152.3,172.6 1152.9,174.0 1153.4,175.5 1154.0,176.9 1154.6,178.4 1155.1,179.8 1155.6,181.3 1156.2,182.7 1156.7,184.1 1157.3,185.6 1157.8,187.0 1158.3,188.4 1158.9,189.8 1159.4,191.2 1159.9,192.6 1160.5,194.0 1161.0,195.4 1161.5,196.8 1162.0,198.1 1162.6,199.5 1163.1,200.8 1163.6,202.1 1164.1,203.4 1164.6,204.7 1165.1,205.9 1165.5,207.1 1166.0,208.3 1166.5,209.3 1166.5,209.3 1165.3,209.9 1164.1,210.7 1162.8,211.5 1161.4,212.3 1160.1,213.1 1158.7,214.0 1157.2,214.9 1155.8,215.8 1154.3,216.7 1152.9,217.6 1151.4,218.6 1149.9,219.5 1148.4,220.5 1146.9,221.4 1145.4,222.4 1143.8,223.3 1142.3,224.3 1140.8,225.3 1139.2,226.2 1137.7,227.2 1136.2,228.2 1134.6,229.2 1133.1,230.1 1131.6,231.1 1130.0,232.1 1128.5,233.0 1127.0,234.0 1125.5,235.0 1124.0,235.9 1122.5,236.9 1121.1,237.8 1119.8,238.8 1118.4,239.9 1117.0,241.0 1115.6,242.1 1114.2,243.3 1112.8,244.4 1111.3,245.6 1109.9,246.8 1108.4,248.0 1107.0,249.2 1105.5,250.4 1104.0,251.6 1102.5,252.8 1101.0,254.0 1099.4,255.3 1097.9,256.5 1096.4,257.8 1094.8,259.1 1093.2,260.3 1091.6,261.6 1089.9,262.9 1088.1,264.2 1086.4,265.3 1084.7,266.5 1083.0,267.6 1081.3,268.7 1079.6,269.8 1077.9,270.8 1076.3,271.9 1074.6,273.0 1073.0,274.1 1071.3,275.1 1069.7,276.2 1068.1,277.2 1066.4,278.3 1064.8,279.4 1063.2,280.4 1061.6,281.5 1060.0,282.5 1058.4,283.5 1056.8,284.6 1055.2,285.6 1053.6,286.7 1052.1,287.7 1050.5,288.7 1048.9,289.8 1047.3,290.8 1045.8,291.9 1044.2,292.9 1042.6,294.0 1041.0,295.0 1039.5,296.1 1037.9,297.1 1036.3,298.2 1034.8,299.2 1033.2,300.2 1031.6,301.3 1030.1,302.3 1028.5,303.4 1026.9,304.4 1025.4,305.5 1023.8,306.5 1022.2,307.5 1020.7,308.6 1019.1,309.6 1017.6,310.7 1016.0,311.7 1014.4,312.8 1012.9,313.8 1011.3,314.9 1009.8,315.9 1008.2,317.0 1006.7,318.1 1005.1,319.1 1003.5,320.2 1002.0,321.3 1000.4,322.4 998.8,323.4 997.2,324.5 995.6,325.6 994.0,326.7 992.4,327.8 990.8,328.9 989.2,330.0 987.6,331.1 985.9,332.2 984.3,333.3 982.7,334.4 981.0,335.6 979.3,336.7 977.6,337.9 975.9,339.0 974.1,340.2 972.3,341.4 970.3,342.5 968.4,343.5 966.6,344.4 964.7,345.4 962.9,346.3 961.1,347.3 959.3,348.2 957.5,349.1 955.7,350.1 953.9,351.0 952.1,351.9 950.3,352.8 948.5,353.7 946.8,354.7 945.0,355.6 943.2,356.5 941.4,357.4 939.6,358.3 937.8,359.3 935.9,360.2 934.1,361.1 932.3,362.1 930.4,363.0 928.5,364.0 926.5,364.9 924.5,365.8 922.5,366.6 920.5,367.4 918.5,368.1 916.6,368.8 914.6,369.5 912.7,370.2 910.8,370.9 909.0,371.5 907.1,372.2 905.2,372.9 903.4,373.6 901.5,374.2 899.6,374.9 897.8,375.5 896.0,376.2 894.1,376.9 892.3,377.5 890.5,378.2 888.6,378.8 886.8,379.5 885.0,380.2 883.2,380.8 881.3,381.5 879.5,382.1 877.7,382.8 875.8,383.4 874.0,384.1 872.2,384.8 870.3,385.4 868.5,386.1 866.6,386.7 864.8,387.4 862.9,388.1 861.0,388.7 859.1,389.4 857.1,390.1 855.1,390.7 853.2,391.2 851.2,391.8 849.3,392.3 847.4,392.8 845.5,393.3 843.6,393.8 841.7,394.4 839.8,394.9 837.9,395.4 836.1,395.9 834.2,396.4 832.3,396.9 830.5,397.4 828.6,397.9 826.7,398.4 824.9,398.9 823.0,399.4 821.1,399.9 819.3,400.4 817.4,400.9 815.5,401.4 813.6,401.9 811.8,402.4 809.9,402.9 808.0,403.4 806.1,403.9 804.2,404.4 802.3,404.9 800.4,405.4 798.5,406.0 796.6,406.5 794.6,407.0 792.7,407.5 790.7,408.0 788.6,408.5 786.5,408.9 784.4,409.3 782.4,409.6 780.4,410.0 778.5,410.3 776.5,410.6 774.5,410.9 772.6,411.2 770.7,411.5 768.7,411.8 766.8,412.1 764.9,412.4 763.0,412.7 761.1,413.1 759.1,413.4 757.2,413.7 755.3,414.0 753.4,414.3 751.5,414.6 749.6,414.9 747.7,415.2 745.9,415.5 744.0,415.8 742.1,416.1 740.2,416.4 738.3,416.7 736.4,417.0 734.5,417.3 732.6,417.6 730.7,417.9 728.8,418.2 726.9,418.5 725.0,418.8 723.1,419.1 721.1,419.4 719.2,419.7 717.3,420.0 715.3,420.3 713.4,420.6 711.4,420.9 709.4,421.2 707.4,421.4 705.5,421.6 703.5,421.9 701.6,422.1 699.6,422.3 697.7,422.5 695.8,422.7 693.8,422.9 691.9,423.1 690.0,423.3 688.1,423.5 686.2,423.7 684.3,423.9 682.4,424.1 680.4,424.2 678.5,424.4 676.6,424.6 674.7,424.8 672.8,425.0 670.9,425.2 669.0,425.4 667.1,425.6 665.2,425.8 663.3,426.0 661.4,426.2 659.5,426.4 657.6,426.6 655.6,426.8 653.7,427.0 651.8,427.2 649.9,427.4 647.9,427.6 646.0,427.9 644.1,428.1 642.1,428.3 640.1,428.5 638.2,428.7 636.2,428.9 634.1,429.0 632.1,429.1 630.1,429.2 628.1,429.3 626.1,429.3 624.2,429.4 622.2,429.4 620.3,429.5 618.4,429.5 616.5,429.6 614.6,429.6 612.7,429.7 610.8,429.7 608.9,429.8 607.0,429.8 605.1,429.9 603.3,429.9 601.4,430.0 599.6,430.0 597.7,430.1 595.9,430.1 594.0,430.2 592.2,430.2 590.4,430.3 588.5,430.3 586.7,430.4 584.9,430.4 583.1,430.5 581.3,430.5 579.5,430.6 577.7,430.6 575.9,430.7 574.1,430.7 572.3,430.8 570.5,430.9 568.8,430.9 567.0,431.0 565.3,431.0 563.5,431.1 561.8,431.1 560.1,431.2 558.4,431.3 556.7,431.3 555.1,431.5 553.4,431.6 551.7,431.8 550.0,431.9 548.2,432.1 546.5,432.2 544.8,432.4 543.1,432.5 541.4,432.7 539.7,432.8 538.0,433.0 536.3,433.1 534.6,433.3 532.9,433.4 531.2,433.6 529.5,433.7 527.8,433.9 526.1,434.0 524.4,434.2 522.7,434.3 521.0,434.5 519.4,434.6 517.7,434.8 516.1,434.9 514.4,435.1 512.8,435.2 511.1,435.4 509.5,435.5 507.9,435.7 506.3,435.8 504.7,436.0 503.2,436.2 501.6,436.3 500.1,436.5 498.6,436.6 497.1,436.8 495.8,437.0 494.4,437.2 493.0,437.6 491.6,438.0 490.1,438.4 488.6,438.8 487.1,439.2 485.6,439.7 484.1,440.1 482.6,440.5 481.1,440.9 479.5,441.4 478.0,441.8 476.4,442.3 474.9,442.7 473.3,443.2 471.8,443.6 470.2,444.1 468.7,444.5 467.1,445.0 465.6,445.4 464.0,445.9 462.5,446.3 460.9,446.8 459.4,447.2 457.8,447.7 456.3,448.1 454.7,448.6 453.2,449.0 451.7,449.4 450.2,449.9 448.6,450.3 447.1,450.8 445.7,451.2 444.2,451.7 442.7,452.1 441.3,452.5 439.8,452.9 438.4,453.4 437.0,453.8 435.7,454.2 434.4,454.6 433.1,455.0 432.0,455.5 430.9,456.0 429.8,456.7 428.7,457.5 427.5,458.2 426.3,459.0 425.1,459.8 423.8,460.7 422.5,461.5 421.2,462.4 419.9,463.2 418.6,464.1 417.3,465.0 416.0,465.9 414.7,466.8 413.3,467.7 412.0,468.6 410.6,469.5 409.2,470.4 407.9,471.4 406.5,472.3 405.1,473.2 403.7,474.1 402.4,475.1 401.0,476.0 399.6,476.9 398.2,477.9 396.9,478.8 395.5,479.7 394.1,480.7 392.8,481.6 391.4,482.5 390.1,483.4 388.8,484.4 387.5,485.3 386.2,486.1 385.0,487.0 383.9,488.0 382.8,489.1 381.6,490.2 380.5,491.3 379.3,492.5 378.1,493.6 376.8,494.8 375.6,496.0 374.4,497.2 373.1,498.4 371.9,499.7 370.6,500.9 369.4,502.1 368.1,503.4 366.8,504.6 365.5,505.9 364.3,507.1 363.0,508.4 361.7,509.6 360.4,510.9 359.2,512.2 357.9,513.4 356.6,514.7 355.3,515.9 354.0,517.2 352.8,518.4 351.5,519.7 350.3,520.9 349.0,522.2 347.8,523.4 346.5,524.6 345.3,525.8 344.2,527.0 343.0,528.2 341.9,529.3 340.9,530.5 340.0,531.8 339.1,533.1 338.2,534.5 337.2,535.9 336.3,537.4 335.3,538.9 334.3,540.4 333.3,541.9 332.3,543.4 331.3,544.9 330.3,546.4 329.3,548.0 328.3,549.5 327.3,551.1 326.3,552.6 325.3,554.2 324.3,555.7 323.3,557.3 322.3,558.8 321.3,560.4 320.3,561.9 319.3,563.4 318.4,564.9 317.4,566.4 316.6,567.8 315.8,569.2 315.1,570.6 314.5,572.2 313.8,573.9 313.2,575.6 312.5,577.3 311.9,579.0 311.2,580.8 310.5,582.6 309.8,584.4 309.2,586.3 308.5,588.1 307.8,590.0 307.1,591.8 306.4,593.7 305.7,595.6 305.0,597.4 304.3,599.3 303.6,601.2 302.9,603.1 302.2,605.0 301.5,606.9 300.8,608.7 300.1,610.6 299.4,612.5 298.7,614.3 298.1,616.1 297.4,617.9 296.8,619.6 296.2,621.3 295.8,622.9 295.5,624.5 295.4,626.3 295.2,628.2 295.1,630.1 295.0,632.1 294.8,634.2 294.7,636.3 294.6,638.4 294.4,640.6 294.3,642.8 294.1,645.0 294.0,647.2 293.9,649.5 293.7,651.8 293.6,654.1 293.4,656.4 293.3,658.8 293.2,661.1 293.0,663.5 292.9,665.9 292.7,668.3 292.6,670.7 292.5,673.1 292.3,675.6 292.2,678.0 292.0,680.4 291.9,682.8 291.8,685.2 291.8,687.5 291.9,689.9 292.0,692.3 292.1,694.9 292.2,697.4 292.3,700.0 292.4,702.6 292.5,705.3 292.7,708.0 292.8,710.7 292.9,713.4 293.0,716.1 293.2,718.9 293.3,721.7 293.4,724.5 293.6,727.3 293.7,730.2 293.8,733.1 294.0,735.9 294.1,738.8 294.3,741.8 294.4,744.7 294.5,747.7 294.7,750.6 294.8,753.6 295.0,756.6 295.1,759.6 295.2,762.7 295.4,765.7 295.5,768.8 295.7,771.8 295.8,774.9 296.0,778.0 296.2,781.1 296.3,784.3 296.5,787.4 296.6,790.6 296.8,793.8 297.0,796.9 297.1,800.1 297.3,803.3 297.5,806.6 297.6,809.8 297.8,813.1 298.0,816.3 298.1,819.6 298.3,822.9 298.5,826.2 298.6,829.5 298.8,832.8 299.0,836.1 299.1,839.5 299.3,842.8 299.5,846.2 299.7,849.5 299.8,852.9 300.0,856.3 300.2,859.7 300.4,863.1 300.5,866.6 300.7,870.0 300.9,873.4 301.0,876.9 301.2,880.3 301.4,883.8 301.5,887.3 301.7,890.8 301.9,894.3 302.0,897.7 302.2,901.3 302.4,904.8 302.6,908.3 302.7,911.8 302.9,915.3 303.1,918.9 303.2,922.4 303.4,925.9 303.6,929.5 303.7,933.1 303.9,936.6 304.1,940.2 304.3,943.8 304.4,947.3 304.6,950.9 304.8,954.5 305.0,958.1 305.1,961.6 305.3,965.2 305.5,968.8 " style="fill:none;stroke:purple;stroke-width:1" />-->
  <defs>
    <marker fill="none" id="Marker" markerHeight="15" markerUnits="strokeWidth" markerWidth="15" orient="auto" refX="5" refY="5" stroke="white" stroke-width="1" viewBox="0 0 10 10">
      <circle cx="5" cy="5" r="4" />
    </marker>
  </defs>
  <path d="" id="slice_line" marker-end="url(#Marker)" marker-start="url(#Marker)" style="fill:none;stroke:white;stroke-width:3" />
  <g id="buoys_fields" />
  <path d="" id="model_currents" style="fill:none;stroke:black;stroke-width:0.5" />
  <path d="" id="radar_currents" style="fill:none;stroke:black;stroke-width:0.5" />
  <path d="" id="buoys_currents" style="fill:none;stroke:black;stroke-width:0.5" />
  <path d="" id="model_wind" style="fill:none;stroke:black;stroke-width:0.5" />
  <path d="" id="buoys_wind" style="fill:none;stroke:black;stroke-width:0.5" />
  <path d="" id="currents_scale" style="fill:none;stroke:black;stroke-width:0.5" />
  <path d="" id="wind_scale" style="fill:none;stroke:black;stroke-width:0.5" />
</svg>
