<?xml version="1.0" encoding="utf-8" standalone="no"?>
<!DOCTYPE svg PUBLIC "-//W3C//DTD SVG 1.1//EN"
  "http://www.w3.org/Graphics/SVG/1.1/DTD/svg11.dtd">
<!-- Created with matplotlib (http://matplotlib.org/) -->
<svg height="432pt" version="1.1" viewBox="0 0 495 432" width="495pt" xmlns="http://www.w3.org/2000/svg" xmlns:xlink="http://www.w3.org/1999/xlink">
 <defs>
  <style type="text/css">
*{stroke-linecap:butt;stroke-linejoin:round;stroke-miterlimit:100000;}
  </style>
 </defs>
 <g id="figure_1">
  <g id="patch_1">
   <path d="M 0 432 
L 495.085181 432 
L 495.085181 0 
L 0 0 
z
" style="fill:none;"/>
  </g>
  <g id="axes_1">
   <g id="patch_2">
    <path clip-path="url(#pddda900752)" d="M 139.924294 400.533105 
L 139.042244 400.583088 
L 138.160328 400.634528 
L 137.280465 400.686717 
L 136.403323 400.739307 
L 135.529314 400.792119 
L 134.658718 400.84505 
L 133.791738 400.898034 
L 132.928528 400.951029 
L 132.069207 401.004003 
L 131.213873 401.056932 
L 130.362606 401.109799 
L 129.515472 401.162589 
L 128.672529 401.215289 
L 127.833824 401.267889 
L 126.9994 401.32038 
L 126.169294 401.372755 
L 125.343539 401.425006 
L 124.522162 401.477128 
L 123.70519 401.529114 
L 122.892644 401.580959 
L 122.084544 401.63266 
L 121.280907 401.68421 
L 120.48175 401.735607 
L 119.687085 401.786846 
L 118.896923 401.837924 
L 118.111276 401.888837 
L 117.330151 401.939582 
L 116.553556 401.990156 
L 115.781497 402.040555 
L 115.013977 402.090779 
L 114.251 402.140823 
L 113.492568 402.190685 
L 112.738682 402.240362 
L 111.989341 402.289854 
L 111.244544 402.339157 
L 110.504289 402.388269 
L 109.768572 402.437189 
L 109.037388 402.485914 
L 108.310731 402.534443 
L 107.588596 402.582774 
L 106.870973 402.630907 
L 106.157855 402.678838 
L 105.449231 402.726568 
L 104.745091 402.774094 
L 104.045424 402.821417 
L 103.350215 402.868533 
L 102.659452 402.915444 
L 101.97312 402.962147 
L 101.291203 403.008642 
L 100.613685 403.054928 
L 99.940546 403.101005 
L 99.27177 403.146873 
L 98.607335 403.19253 
L 97.947222 403.237977 
L 97.291408 403.283213 
L 96.639872 403.328239 
L 95.992588 403.373054 
L 95.349532 403.417658 
L 94.710678 403.462051 
L 94.076001 403.506234 
L 93.445471 403.550208 
L 92.81906 403.593971 
L 92.196739 403.637526 
L 91.578475 403.680873 
L 90.964239 403.724012 
L 90.353996 403.766944 
L 89.747713 403.809671 
L 89.145354 403.852193 
L 88.546885 403.894511 
L 87.952268 403.936627 
L 87.361466 403.978542 
L 86.774439 404.020257 
L 86.191147 404.061774 
L 85.61155 404.103095 
L 85.035606 404.14422 
L 84.463272 404.185153 
L 83.894504 404.225895 
L 83.329258 404.266448 
L 82.767487 404.306814 
L 82.209144 404.346995 
L 81.654183 404.386993 
L 81.102554 404.426811 
L 80.554208 404.466452 
L 80.009094 404.505918 
L 79.46716 404.545212 
L 78.928355 404.584335 
L 78.392625 404.623293 
L 77.859915 404.662086 
L 77.330171 404.700719 
L 76.803336 404.739194 
L 76.279353 404.777515 
L 75.758165 404.815685 
L 75.239713 404.853707 
L 74.723938 404.891586 
L 74.210778 404.929324 
L 73.700173 404.966925 
L 73.192061 405.004393 
L 72.686379 405.041732 
L 72.183064 405.078946 
L 71.68205 405.116039 
L 71.183273 405.153015 
L 70.686667 405.189878 
L 70.192165 405.226632 
L 69.6997 405.263283 
L 69.209204 405.299833 
L 68.720607 405.336289 
L 68.23384 405.372654 
L 67.748834 405.408933 
L 67.265517 405.445131 
L 66.783818 405.481253 
L 66.303664 405.517303 
L 65.824983 405.553287 
L 65.347702 405.589209 
L 64.871746 405.625076 
L 64.397041 405.660891 
L 63.923513 405.696661 
L 63.451085 405.73239 
L 62.979681 405.768084 
L 62.509225 405.803749 
L 62.03964 405.839389 
L 61.570847 405.875011 
L 61.102769 405.91062 
L 60.635328 405.946222 
L 60.168444 405.981823 
L 59.702038 406.017428 
L 59.236031 406.053043 
L 58.770341 406.088675 
L 58.304889 406.124328 
L 57.839593 406.16001 
L 57.374373 406.195726 
L 56.909146 406.231483 
L 56.443831 406.267286 
L 55.978345 406.303142 
L 55.512606 406.339057 
L 55.046531 406.375038 
L 54.580037 406.41109 
L 54.11304 406.44722 
L 53.645456 406.483434 
L 53.177202 406.51974 
L 52.708193 406.556143 
L 52.238345 406.592649 
L 51.767573 406.629267 
L 51.295792 406.666001 
L 50.822917 406.702859 
L 50.348862 406.739847 
L 49.873542 406.776972 
L 49.39687 406.814241 
L 48.91876 406.85166 
L 48.439126 406.889236 
L 47.95788 406.926976 
L 47.474935 406.964887 
L 46.990205 407.002975 
L 46.5036 407.041246 
L 46.015033 407.079709 
L 45.524415 407.118369 
L 45.031657 407.157234 
L 44.536668 407.19631 
L 44.039358 407.235604 
L 43.539637 407.275122 
L 43.037413 407.314872 
L 42.532592 407.35486 
L 42.025082 407.395093 
L 41.514787 407.435577 
L 41.001612 407.476318 
L 40.485459 407.517324 
L 39.96623 407.5586 
L 39.443824 407.600154 
L 38.918137 407.641989 
L 38.389065 407.684114 
L 37.856499 407.726532 
L 37.320327 407.769249 
L 36.780435 407.812271 
L 36.236702 407.855601 
L 35.689001 407.899242 
L 35.137202 407.943199 
L 34.581164 407.987471 
L 34.020738 408.03206 
L 33.455761 408.076962 
L 32.886059 408.122174 
L 32.311438 408.167687 
L 31.731679 408.213486 
L 31.146536 408.25955 
L 30.555721 408.305844 
L 29.958894 408.352317 
L 29.355638 408.398888 
L 28.745428 408.445429 
L 28.127579 408.491733 
L 27.501136 408.537464 
L 26.864578 408.582108 
L 26.212694 408.625254 
L 26.212694 408.625254 
L 26.138827 406.976782 
L 26.074245 405.37099 
L 26.012373 403.787955 
L 25.951952 402.22129 
L 25.892497 400.667662 
L 25.83376 399.125003 
L 25.775593 397.591899 
L 25.7179 396.067313 
L 25.660612 394.550455 
L 25.603682 393.040694 
L 25.547069 391.537521 
L 25.490745 390.040507 
L 25.434685 388.549289 
L 25.37887 387.063556 
L 25.323281 385.583033 
L 25.267906 384.107478 
L 25.212732 382.636674 
L 25.157748 381.170425 
L 25.102945 379.708553 
L 25.048313 378.250894 
L 24.993846 376.797297 
L 24.939536 375.347621 
L 24.885377 373.901733 
L 24.831363 372.45951 
L 24.777489 371.020832 
L 24.72375 369.585589 
L 24.670141 368.153672 
L 24.616657 366.724978 
L 24.563295 365.299407 
L 24.510051 363.876863 
L 24.45692 362.457251 
L 24.403898 361.040479 
L 24.350984 359.626458 
L 24.298172 358.215097 
L 24.245461 356.806311 
L 24.192845 355.400011 
L 24.140324 353.996111 
L 24.087892 352.594526 
L 24.035548 351.19517 
L 23.983288 349.797956 
L 23.931109 348.402798 
L 23.879009 347.00961 
L 23.826984 345.618304 
L 23.775031 344.22879 
L 23.723148 342.84098 
L 23.671332 341.454781 
L 23.619579 340.070102 
L 23.567887 338.686847 
L 23.516253 337.30492 
L 23.464674 335.924222 
L 23.413146 334.544652 
L 23.361666 333.166104 
L 23.310232 331.788473 
L 23.25884 330.411648 
L 23.207487 329.035514 
L 23.156169 327.659953 
L 23.104884 326.284843 
L 23.053627 324.910057 
L 23.002395 323.535461 
L 22.951184 322.160918 
L 22.899991 320.786283 
L 22.848811 319.411404 
L 22.797641 318.036122 
L 22.746477 316.660269 
L 22.695315 315.283668 
L 22.644149 313.906129 
L 22.592976 312.527453 
L 22.541792 311.147425 
L 22.490591 309.765817 
L 22.439369 308.38238 
L 22.388121 306.996846 
L 22.336843 305.608924 
L 22.28553 304.218294 
L 22.234176 302.8246 
L 22.182779 301.42745 
L 22.131335 300.026399 
L 22.07984 298.620942 
L 22.028295 297.210497 
L 21.9767 295.794379 
L 21.925061 294.371774 
L 21.873394 292.94168 
L 21.821725 291.502835 
L 21.770109 290.053582 
L 21.718657 288.591626 
L 21.667613 287.113534 
L 21.617613 285.613511 
L 21.571077 284.079283 
L 21.565385 282.481044 
L 21.648634 280.877659 
L 21.785132 279.335309 
L 21.924339 277.829227 
L 22.063742 276.344313 
L 22.202937 274.873951 
L 22.341865 273.414323 
L 22.480555 271.962894 
L 22.619062 270.517814 
L 22.75745 269.077643 
L 22.895783 267.641198 
L 23.034127 266.207468 
L 23.172548 264.775552 
L 23.311114 263.34462 
L 23.449894 261.913887 
L 23.588964 260.482581 
L 23.728405 259.049928 
L 23.868305 257.61512 
L 24.00877 256.177293 
L 24.149924 254.73549 
L 24.291922 253.288602 
L 24.434971 251.83529 
L 24.57937 250.373833 
L 24.725593 248.901832 
L 24.87455 247.415518 
L 25.02866 245.907575 
L 25.209856 244.360302 
L 25.449193 242.811063 
L 25.723849 241.301602 
L 25.999018 239.815589 
L 26.273671 238.341943 
L 26.547934 236.87579 
L 26.82204 235.414221 
L 27.096217 233.955195 
L 27.370681 232.497121 
L 27.645636 231.038661 
L 27.921281 229.578621 
L 28.197817 228.115882 
L 28.47545 226.649354 
L 28.754395 225.177936 
L 29.034891 223.700483 
L 29.3172 222.215766 
L 29.601622 220.722429 
L 29.888515 219.218933 
L 30.178311 217.703471 
L 30.471567 216.173844 
L 30.769033 214.627245 
L 31.071807 213.059875 
L 31.381687 211.466129 
L 31.702279 209.83652 
L 32.044435 208.150242 
L 32.490044 206.403008 
L 33.049764 204.695381 
L 33.632139 203.075017 
L 34.209595 201.488192 
L 34.784157 199.918473 
L 35.357703 198.357431 
L 35.931817 196.799424 
L 36.507951 195.239979 
L 37.087562 193.675048 
L 37.672251 192.100552 
L 38.263928 190.511963 
L 38.865074 188.90379 
L 39.479243 187.268729 
L 40.112212 185.595942 
L 40.775464 183.86673 
L 41.503031 182.038806 
L 42.480851 180.162419 
L 43.659871 178.45728 
L 44.809014 176.956833 
L 45.914837 175.53427 
L 46.990891 174.159511 
L 48.045207 172.818291 
L 49.083259 171.501935 
L 50.109312 170.204256 
L 51.127186 168.920186 
L 52.140967 167.644888 
L 53.156282 166.372717 
L 54.184947 165.094907 
L 55.269994 163.828478 
L 56.392136 162.627248 
L 57.492443 161.49259 
L 58.569376 160.388496 
L 59.628337 159.305983 
L 60.672595 158.24058 
L 61.704425 157.189447 
L 62.725566 156.150529 
L 63.737448 155.122204 
L 64.741319 154.103107 
L 65.73833 153.092019 
L 66.729614 152.087789 
L 67.71637 151.089256 
L 68.699998 150.095148 
L 69.682385 149.103912 
L 70.666689 148.113345 
L 71.661096 147.119287 
L 72.683589 146.142531 
L 73.715581 145.203957 
L 74.730142 144.291107 
L 75.732317 143.392017 
L 76.724546 142.503327 
L 77.708356 141.62324 
L 78.684835 140.750572 
L 79.654829 139.884448 
L 80.61904 139.024167 
L 81.578079 138.169137 
L 82.532496 137.318836 
L 83.48281 136.472784 
L 84.42953 135.630524 
L 85.373174 134.791602 
L 86.314311 133.955545 
L 87.253619 133.121825 
L 88.192043 132.289789 
L 89.131347 131.458506 
L 90.077309 130.629811 
L 91.027675 129.81157 
L 91.974252 129.004441 
L 92.916409 128.202536 
L 93.855318 127.404276 
L 94.79178 126.608805 
L 95.726453 125.815501 
L 96.659949 125.023826 
L 97.592888 124.233266 
L 98.525947 123.443285 
L 99.45992 122.653286 
L 100.395816 121.862554 
L 101.335045 121.070159 
L 102.279862 120.274772 
L 103.23481 119.474266 
L 104.217715 118.669347 
L 105.228033 117.892749 
L 106.235873 117.155746 
L 107.229694 116.434169 
L 108.214047 115.721586 
L 109.191262 115.01544 
L 110.162809 114.314313 
L 111.129732 113.617273 
L 112.092841 112.923633 
L 113.052811 112.232849 
L 114.010237 111.544459 
L 114.965671 110.858047 
L 115.919661 110.173223 
L 116.872784 109.489593 
L 117.825701 108.806735 
L 118.779268 108.124162 
L 119.734812 107.441239 
L 120.695247 106.757044 
L 121.667 106.078443 
L 122.643075 105.413242 
L 123.613366 104.757308 
L 124.579896 104.105228 
L 125.543928 103.455648 
L 126.506286 102.807834 
L 127.467603 102.161284 
L 128.428412 101.515597 
L 129.3892 100.87043 
L 130.350436 100.22546 
L 131.31259 99.580378 
L 132.276147 98.93487 
L 133.241629 98.288606 
L 134.209615 97.641234 
L 135.180761 96.99236 
L 136.155842 96.341533 
L 137.135808 95.688221 
L 138.121876 95.031767 
L 139.115703 94.371324 
L 140.119727 93.705745 
L 141.138002 93.033366 
L 142.178799 92.35166 
L 143.273328 91.666433 
L 144.411782 91.035096 
L 145.538747 90.469758 
L 146.640612 89.925221 
L 147.726706 89.391774 
L 148.801548 88.86572 
L 149.867862 88.345119 
L 150.927502 87.828756 
L 151.981842 87.315785 
L 153.031968 86.80557 
L 154.078776 86.297603 
L 155.123046 85.79146 
L 156.165473 85.286773 
L 157.206705 84.78321 
L 158.247361 84.280463 
L 159.288053 83.778235 
L 160.329402 83.276236 
L 161.372057 82.774169 
L 162.416722 82.271724 
L 163.464181 81.768568 
L 164.515348 81.264329 
L 165.57133 80.758581 
L 166.633545 80.25081 
L 167.703956 79.740379 
L 168.785564 79.226457 
L 169.883812 78.708002 
L 171.013401 78.183539 
L 172.185217 77.696578 
L 173.360069 77.264798 
L 174.509047 76.852352 
L 175.645323 76.447894 
L 176.773837 76.048139 
L 177.897676 75.651444 
L 179.019165 75.256757 
L 180.140326 74.863291 
L 181.263158 74.470375 
L 182.389894 74.077372 
L 183.523344 73.683627 
L 184.667579 73.288441 
L 185.829685 72.891221 
L 187.027243 72.492439 
L 188.27391 72.147613 
L 189.514642 71.878011 
L 190.709753 71.63529 
L 191.879985 71.402068 
L 193.032524 71.174666 
L 194.171395 70.951441 
L 195.299222 70.731475 
L 196.417892 70.514173 
L 197.528859 70.299114 
L 198.633309 70.085981 
L 199.732253 69.874522 
L 200.826593 69.664526 
L 201.917161 69.455813 
L 203.004766 69.248224 
L 204.090223 69.041613 
L 205.1744 68.835845 
L 206.258281 68.630794 
L 207.343071 68.426351 
L 208.43041 68.222448 
L 209.522901 68.019178 
L 210.625964 67.817423 
L 211.746439 67.634207 
L 212.864715 67.479276 
L 213.963991 67.337601 
L 215.05236 67.199592 
L 216.133246 67.063769 
L 217.208638 66.92951 
L 218.279932 66.796473 
L 219.348232 66.664436 
L 220.414496 66.533238 
L 221.479615 66.402757 
L 222.544474 66.272888 
L 223.609991 66.143543 
L 224.677173 66.014646 
L 225.747176 65.886133 
L 226.821394 65.757953 
L 227.901603 65.630088 
L 228.990215 65.50258 
L 230.090802 65.375642 
L 231.209339 65.25001 
L 232.358085 65.128586 
L 233.563154 65.0508 
L 234.767432 65.056812 
L 235.911156 65.110493 
L 237.01788 65.169802 
L 238.100002 65.231052 
L 239.163583 65.293141 
L 240.212247 65.355639 
L 241.24843 65.418352 
L 242.273905 65.481187 
L 243.290039 65.544099 
L 244.297934 65.607071 
L 245.298516 65.670101 
L 246.292586 65.733197 
L 247.280861 65.796375 
L 248.263999 65.859659 
L 249.242626 65.923078 
L 250.217354 65.98667 
L 251.1888 66.05048 
L 252.157609 66.114568 
L 253.124483 66.17901 
L 254.090217 66.243907 
L 255.05576 66.309404 
L 256.022312 66.375719 
L 256.991513 66.44321 
L 257.965831 66.512557 
L 258.949586 66.585358 
L 259.954244 66.666734 
L 260.968177 66.793726 
L 261.954669 66.962109 
L 262.908226 67.132458 
L 263.842908 67.302207 
L 264.763489 67.47086 
L 265.672618 67.638368 
L 266.57201 67.804785 
L 267.462892 67.970187 
L 268.346206 68.13466 
L 269.222714 68.298286 
L 270.093064 68.461148 
L 270.957829 68.623327 
L 271.817535 68.784905 
L 272.672682 68.945972 
L 273.523767 69.106621 
L 274.3713 69.26696 
L 275.21583 69.427114 
L 276.057973 69.58724 
L 276.898459 69.747538 
L 277.738201 69.908289 
L 278.578428 70.069915 
L 279.420941 70.233133 
L 280.268737 70.39939 
L 281.127992 70.57259 
L 282.000307 70.779307 
L 282.851749 71.023783 
L 283.664596 71.275908 
L 284.456168 71.524781 
L 285.232022 71.770273 
L 285.994944 72.012591 
L 286.746605 72.251952 
L 287.488116 72.488534 
L 288.220265 72.722482 
L 288.943637 72.953909 
L 289.658676 73.182904 
L 290.365722 73.409535 
L 291.065039 73.633854 
L 291.756826 73.855897 
L 292.441225 74.075682 
L 293.118333 74.293218 
L 293.788194 74.508493 
L 294.450808 74.721482 
L 295.106118 74.932137 
L 295.754007 75.140384 
L 296.394283 75.346118 
L 297.026652 75.549184 
L 297.650682 75.749356 
L 298.265731 75.946293 
L 298.870812 76.139438 
L 299.464302 76.327779 
L 300.043187 76.509058 
L 300.60054 76.672003 
L 301.157041 76.801318 
L 301.734614 76.90979 
L 302.325338 77.016814 
L 302.923204 77.123602 
L 303.525479 77.23041 
L 304.130597 77.337283 
L 304.737551 77.444209 
L 305.345639 77.551163 
L 305.954349 77.658118 
L 306.563293 77.765047 
L 307.172171 77.871927 
L 307.780743 77.978739 
L 308.388816 78.085466 
L 308.996236 78.192094 
L 309.602877 78.298611 
L 310.208636 78.405008 
L 310.813434 78.51128 
L 311.417208 78.617422 
L 312.019915 78.723434 
L 312.621532 78.82932 
L 313.222054 78.935089 
L 313.821502 79.040755 
L 314.41993 79.146344 
L 315.017439 79.2519 
L 315.614205 79.357496 
L 316.210543 79.463276 
L 316.807065 79.569577 
L 317.40568 79.677845 
L 318.002961 79.793083 
L 318.593309 79.913703 
L 319.177299 80.034081 
L 319.756606 80.153922 
L 320.331871 80.273162 
L 320.903427 80.39179 
L 321.471466 80.509806 
L 322.036108 80.627209 
L 322.597424 80.744 
L 323.155456 80.860175 
L 323.710227 80.97573 
L 324.261739 81.09066 
L 324.809985 81.204955 
L 325.354942 81.318607 
L 325.896582 81.431604 
L 326.434862 81.543931 
L 326.969732 81.655573 
L 327.50113 81.766512 
L 328.028984 81.876725 
L 328.553207 81.986187 
L 329.073697 82.094869 
L 329.590332 82.202734 
L 330.102967 82.309738 
L 330.611422 82.415826 
L 331.115473 82.520926 
L 331.614829 82.624941 
L 332.109094 82.727726 
L 332.597694 82.829052 
L 333.07971 82.928489 
L 333.55339 83.024986 
L 334.016078 83.111787 
L 334.47788 83.184011 
L 334.947366 83.248879 
L 335.419994 83.312864 
L 335.893518 83.376421 
L 336.366801 83.439647 
L 336.839126 83.502558 
L 337.309984 83.565142 
L 337.778976 83.627379 
L 338.245768 83.689243 
L 338.710068 83.750706 
L 339.171605 83.811738 
L 339.630122 83.872307 
L 340.085366 83.932377 
L 340.537079 83.991912 
L 340.984998 84.05087 
L 341.428842 84.109206 
L 341.868311 84.166868 
L 342.303072 84.223797 
L 342.732757 84.279925 
L 343.156945 84.335171 
L 343.575146 84.389436 
L 343.986778 84.442598 
L 344.391132 84.4945 
L 344.787313 84.54493 
L 345.174148 84.593592 
L 345.550016 84.640028 
L 345.912497 84.683462 
L 346.257525 84.722289 
L 346.576463 84.751953 
L 346.867397 84.741404 
L 347.165372 84.681443 
L 347.492509 84.60107 
L 347.836885 84.512898 
L 348.193679 84.419817 
L 348.560132 84.323191 
L 348.934432 84.223816 
L 349.315284 84.122215 
L 349.701707 84.018766 
L 350.092919 83.913751 
L 350.48828 83.807397 
L 350.887248 83.699887 
L 351.289354 83.591376 
L 351.69418 83.481998 
L 352.101351 83.371872 
L 352.510521 83.261101 
L 352.921366 83.149785 
L 353.333576 83.038012 
L 353.746855 82.925868 
L 354.160908 82.813434 
L 354.575441 82.70079 
L 354.990155 82.588016 
L 355.40474 82.47519 
L 355.81887 82.362395 
L 356.232194 82.249715 
L 356.644324 82.13724 
L 357.054826 82.025067 
L 357.463198 81.913304 
L 357.86884 81.802069 
L 358.271012 81.691499 
L 358.668754 81.581754 
L 359.06074 81.473018 
L 359.444979 81.365492 
L 359.818018 81.259293 
L 360.171958 81.153785 
L 360.496923 81.025722 
L 360.816893 80.859519 
L 361.155455 80.672018 
L 361.50608 80.475111 
L 361.865785 80.2718 
L 362.232831 80.063571 
L 362.606065 79.851322 
L 362.984657 79.635662 
L 363.367967 79.417043 
L 363.755482 79.195813 
L 364.146772 78.972257 
L 364.541467 78.746615 
L 364.939238 78.519095 
L 365.339786 78.289882 
L 365.742832 78.059147 
L 366.148113 77.827049 
L 366.555371 77.593739 
L 366.964352 77.359366 
L 367.374798 77.124075 
L 367.786444 76.888017 
L 368.199011 76.651346 
L 368.6122 76.414224 
L 369.025683 76.176825 
L 369.439091 75.939343 
L 369.852001 75.701994 
L 370.26391 75.465027 
L 370.674205 75.22874 
L 371.082104 74.993495 
L 371.486557 74.759758 
L 371.886048 74.528148 
L 372.278148 74.299538 
L 372.658161 74.075197 
L 373.010127 73.853658 
L 373.333429 73.603153 
L 373.656773 73.311213 
L 373.994238 73.000122 
L 374.342161 72.676985 
L 374.698608 72.344678 
L 375.062375 72.004775 
L 375.432638 71.658282 
L 375.808793 71.3059 
L 376.190374 70.948154 
L 376.577004 70.585457 
L 376.96837 70.218143 
L 377.364205 69.846495 
L 377.764268 69.47076 
L 378.168342 69.091157 
L 378.576222 68.70789 
L 378.987709 68.321151 
L 379.402602 67.931132 
L 379.820689 67.538027 
L 380.241742 67.142042 
L 380.665494 66.743405 
L 381.091627 66.342385 
L 381.519723 65.939313 
L 381.9492 65.534625 
L 382.379136 65.128955 
L 382.807779 64.723326 
L 383.229764 64.320123 
L 383.636835 63.905384 
L 384.03988 63.467993 
L 384.452374 63.016308 
L 384.872282 62.555209 
L 385.298722 62.086335 
L 385.731176 61.610518 
L 386.169313 61.128252 
L 386.612909 60.639862 
L 387.061808 60.145569 
L 387.515903 59.645526 
L 387.97512 59.139841 
L 388.439413 58.628588 
L 388.908758 58.111811 
L 389.38315 57.589531 
L 389.862602 57.061749 
L 390.347143 56.528448 
L 390.836819 55.98959 
L 391.331694 55.445121 
L 391.831851 54.894964 
L 392.337394 54.339022 
L 392.848453 53.777173 
L 393.365187 53.209264 
L 393.887796 52.635105 
L 394.416526 52.05446 
L 394.951689 51.467034 
L 395.49369 50.872447 
L 396.043066 50.270202 
L 396.600561 49.659631 
L 397.167269 49.039782 
L 397.744948 48.409215 
L 398.336878 47.765518 
L 398.951364 47.103928 
L 399.619192 46.440161 
L 400.322865 45.814671 
L 401.017674 45.226822 
L 401.703643 44.650499 
L 402.384605 44.080139 
L 403.062579 43.513303 
L 403.738784 42.948636 
L 404.414024 42.385286 
L 405.088855 41.822683 
L 405.763677 41.260422 
L 406.438779 40.698214 
L 407.114371 40.135847 
L 407.790602 39.57317 
L 408.467572 39.010078 
L 409.145341 38.446502 
L 409.823932 37.882408 
L 410.503336 37.317788 
L 411.183514 36.75266 
L 411.864398 36.187069 
L 412.545891 35.621082 
L 413.227865 35.054793 
L 413.91016 34.488317 
L 414.592585 33.921801 
L 415.27491 33.355418 
L 415.956866 32.789371 
L 416.638137 32.223902 
L 417.318355 31.659291 
L 417.99709 31.095864 
L 418.673839 30.534002 
L 419.348006 29.974155 
L 420.018883 29.416854 
L 420.68561 28.862735 
L 421.34712 28.312577 
L 422.002053 27.767357 
L 422.648593 27.228341 
L 423.284159 26.697257 
L 423.904706 26.176635 
L 424.502675 25.6706 
L 425.056087 25.188081 
L 425.056087 25.188081 
L 425.321245 25.457794 
L 425.602687 25.734969 
L 425.893305 26.016 
L 426.190204 26.299973 
L 426.491629 26.586249 
L 426.796425 26.874331 
L 427.103786 27.163833 
L 427.413125 27.45445 
L 427.724001 27.745936 
L 428.036074 28.038098 
L 428.349078 28.330776 
L 428.662802 28.623843 
L 428.977076 28.917196 
L 429.291763 29.210749 
L 429.606754 29.504437 
L 429.921961 29.798207 
L 430.237314 30.092018 
L 430.552758 30.385839 
L 430.868251 30.67965 
L 431.183763 30.973438 
L 431.499273 31.267197 
L 431.814769 31.560927 
L 432.130247 31.854637 
L 432.445709 32.148338 
L 432.761165 32.442049 
L 433.07663 32.735791 
L 433.392124 33.029593 
L 433.707673 33.323487 
L 434.023308 33.617507 
L 434.339065 33.911697 
L 434.654984 34.206099 
L 434.971109 34.500763 
L 435.287491 34.795744 
L 435.604182 35.091098 
L 435.92124 35.386889 
L 436.23873 35.683184 
L 436.556719 35.980055 
L 436.87528 36.277582 
L 437.19449 36.575848 
L 437.514435 36.874944 
L 437.835205 37.174966 
L 438.156895 37.476022 
L 438.47961 37.778224 
L 438.803462 38.081698 
L 439.128572 38.386579 
L 439.455072 38.693015 
L 439.783104 39.001172 
L 440.112823 39.311231 
L 440.444402 39.623397 
L 440.77803 39.937901 
L 441.113918 40.255007 
L 441.452303 40.575019 
L 441.793452 40.898294 
L 442.137672 41.225258 
L 442.485317 41.556427 
L 442.836802 41.892444 
L 443.192619 42.234128 
L 443.553359 42.582561 
L 443.919744 42.939229 
L 444.292677 43.306266 
L 444.6734 43.686936 
L 445.064616 44.086984 
L 445.463744 44.537535 
L 445.819836 45.029399 
L 446.120594 45.513951 
L 446.404075 45.983248 
L 446.676217 46.442772 
L 446.940223 46.894735 
L 447.198134 47.340617 
L 447.451323 47.781534 
L 447.700766 48.218363 
L 447.947184 48.651817 
L 448.191134 49.082488 
L 448.433056 49.510879 
L 448.67331 49.937427 
L 448.9122 50.362516 
L 449.149983 50.786495 
L 449.386885 51.209683 
L 449.623109 51.632378 
L 449.858834 52.054865 
L 450.094231 52.477422 
L 450.329455 52.900323 
L 450.564657 53.323851 
L 450.799982 53.748303 
L 451.035571 54.174 
L 451.271568 54.601307 
L 451.508113 55.030652 
L 451.745344 55.462574 
L 451.983394 55.897787 
L 452.222376 56.337323 
L 452.462531 56.782976 
L 452.700398 57.241654 
L 452.92553 57.707827 
L 453.138545 58.169793 
L 453.347734 58.628049 
L 453.554442 59.083936 
L 453.759444 59.538139 
L 453.963239 59.991148 
L 454.166165 60.44334 
L 454.368468 60.895015 
L 454.570335 61.346423 
L 454.771911 61.797772 
L 454.973317 62.249243 
L 455.174652 62.700993 
L 455.376002 63.153162 
L 455.577439 63.605874 
L 455.779028 64.059242 
L 455.980827 64.513369 
L 456.182889 64.96835 
L 456.385259 65.424271 
L 456.58798 65.881212 
L 456.791093 66.339249 
L 456.994632 66.798451 
L 457.198631 67.258883 
L 457.403121 67.720606 
L 457.608132 68.183679 
L 457.813689 68.648154 
L 458.019819 69.114084 
L 458.226545 69.581516 
L 458.433888 70.050495 
L 458.641871 70.521064 
L 458.850511 70.993265 
L 459.059829 71.467136 
L 459.269841 71.942714 
L 459.480563 72.420034 
L 459.692011 72.89913 
L 459.9042 73.380034 
L 460.117143 73.862779 
L 460.330853 74.347397 
L 460.545344 74.83392 
L 460.760627 75.322384 
L 460.976713 75.812827 
L 461.193611 76.3053 
L 461.411328 76.799874 
L 461.629863 77.296749 
L 461.848752 77.795925 
L 462.067865 78.296994 
L 462.287588 78.799781 
L 462.508002 79.304376 
L 462.729147 79.810819 
L 462.951047 80.319138 
L 463.173716 80.829351 
L 463.397165 81.341475 
L 463.6214 81.855524 
L 463.846429 82.371508 
L 464.072256 82.889438 
L 464.298883 83.409325 
L 464.526316 83.931178 
L 464.754556 84.455012 
L 464.983608 84.980842 
L 465.213474 85.508687 
L 465.444162 86.038574 
L 465.675675 86.570538 
L 465.908025 87.104626 
L 466.141221 87.640905 
L 466.37528 88.179469 
L 466.610222 88.720454 
L 466.846072 89.264061 
L 467.082859 89.810605 
L 467.320604 90.360609 
L 467.559282 90.915028 
L 467.799092 91.476528 
L 468.031024 92.046753 
L 468.251712 92.617718 
L 468.468474 93.183651 
L 468.68321 93.746772 
L 468.896605 94.307702 
L 469.108999 94.86677 
L 469.320574 95.424142 
L 469.531429 95.979885 
L 469.741613 96.533999 
L 469.951144 97.086426 
L 470.160016 97.637066 
L 470.368206 98.185778 
L 470.575673 98.73238 
L 470.782363 99.276651 
L 470.988208 99.818325 
L 471.193124 100.357085 
L 471.397013 100.892554 
L 471.599757 101.424286 
L 471.801218 101.951742 
L 472.001235 102.47427 
L 472.199617 102.991066 
L 472.396137 103.501115 
L 472.590526 104.003103 
L 472.782468 104.495259 
L 472.971606 104.975077 
L 473.157597 105.438728 
L 473.340382 105.879669 
L 473.519796 106.281959 
L 473.519796 106.281959 
L 473.072543 106.531914 
L 472.590927 106.817674 
L 472.087606 107.123033 
L 471.568053 107.441809 
L 471.035692 107.770693 
L 470.49288 108.107607 
L 469.941355 108.451113 
L 469.382457 108.800144 
L 468.817262 109.153873 
L 468.246659 109.511635 
L 467.671396 109.87288 
L 467.092121 110.237142 
L 466.509399 110.604019 
L 465.923736 110.973157 
L 465.335586 111.344243 
L 464.74537 111.71699 
L 464.153476 112.091137 
L 463.560273 112.466441 
L 462.966119 112.842669 
L 462.371363 113.219599 
L 461.776357 113.597011 
L 461.181467 113.974685 
L 460.587081 114.352391 
L 459.993629 114.729889 
L 459.401608 115.106911 
L 458.811619 115.483153 
L 458.224439 115.85825 
L 457.641148 116.23175 
L 457.063425 116.603058 
L 456.494311 116.971398 
L 455.943017 117.335462 
L 455.415236 117.718302 
L 454.891693 118.132092 
L 454.357054 118.560643 
L 453.814697 118.997938 
L 453.266124 119.441618 
L 452.712263 119.890439 
L 452.153724 120.343653 
L 451.590918 120.80077 
L 451.024119 121.261463 
L 450.453501 121.725512 
L 449.87915 122.192781 
L 449.301076 122.663201 
L 448.719203 123.136767 
L 448.133363 123.613543 
L 447.543267 124.093663 
L 446.948456 124.57736 
L 446.348207 125.064994 
L 445.741338 125.557118 
L 445.12573 126.054581 
L 444.496902 126.558726 
L 443.837731 127.063994 
L 443.156074 127.542685 
L 442.480105 127.99041 
L 441.814123 128.427268 
L 441.155105 128.857732 
L 440.501425 129.283774 
L 439.852069 129.706467 
L 439.20635 130.126472 
L 438.563783 130.544233 
L 437.924008 130.960066 
L 437.286749 131.374203 
L 436.651791 131.786823 
L 436.018965 132.198065 
L 435.388136 132.608038 
L 434.759201 133.01683 
L 434.132079 133.424509 
L 433.506718 133.831127 
L 432.883094 134.236722 
L 432.261226 134.641314 
L 431.641201 135.044906 
L 431.023264 135.447479 
L 430.408464 135.849266 
L 429.796486 136.252435 
L 429.185273 136.657619 
L 428.574107 137.063256 
L 427.963205 137.468978 
L 427.35266 137.874641 
L 426.742516 138.280179 
L 426.132788 138.68556 
L 425.523481 139.090772 
L 424.914587 139.495813 
L 424.306091 139.900686 
L 423.697978 140.305401 
L 423.090226 140.709967 
L 422.482812 141.1144 
L 421.875714 141.518713 
L 421.268908 141.922922 
L 420.66237 142.327043 
L 420.056077 142.731091 
L 419.450009 143.135082 
L 418.844151 143.53903 
L 418.238492 143.942946 
L 417.633035 144.34684 
L 417.027797 144.750713 
L 416.422832 145.154562 
L 415.818262 145.558368 
L 415.214371 145.962101 
L 414.61234 146.366103 
L 414.011681 146.772659 
L 413.410147 147.182342 
L 412.807094 147.593541 
L 412.202696 148.005903 
L 411.597006 148.419301 
L 410.990019 148.833691 
L 410.3817 149.249069 
L 409.771986 149.66546 
L 409.160797 150.082903 
L 408.548034 150.501451 
L 407.933579 150.921171 
L 407.317295 151.342142 
L 406.699025 151.764453 
L 406.078585 152.18821 
L 405.455763 152.613535 
L 404.830306 153.040567 
L 404.201916 153.469472 
L 403.570227 153.900443 
L 402.934788 154.333716 
L 402.295017 154.769575 
L 401.650141 155.208379 
L 400.999076 155.650585 
L 400.340182 156.096793 
L 399.670703 156.547791 
L 398.985147 157.004641 
L 398.264414 157.457567 
L 397.522266 157.877497 
L 396.790766 158.264716 
L 396.070467 158.641269 
L 395.35772 159.011606 
L 394.650473 159.37782 
L 393.947374 159.741094 
L 393.247449 160.10219 
L 392.549956 160.461642 
L 391.854292 160.819856 
L 391.159947 161.177154 
L 390.466471 161.533806 
L 389.773451 161.890047 
L 389.080494 162.246092 
L 388.387211 162.602141 
L 387.693206 162.958388 
L 386.99806 163.315028 
L 386.301312 163.672265 
L 385.60244 164.030314 
L 384.900823 164.389414 
L 384.195691 164.749836 
L 383.486035 165.111896 
L 382.770446 165.475965 
L 382.046766 165.842472 
L 381.311263 166.211826 
L 380.555329 166.584817 
L 379.765804 166.933207 
L 378.970731 167.239817 
L 378.197632 167.526314 
L 377.436931 167.804715 
L 376.685332 168.077991 
L 375.940856 168.347632 
L 375.202176 168.614506 
L 374.468336 168.87918 
L 373.73861 169.14205 
L 373.012426 169.403413 
L 372.289311 169.6635 
L 371.568871 169.922497 
L 370.850765 170.180559 
L 370.134691 170.437818 
L 369.420382 170.694388 
L 368.707593 170.950372 
L 367.996096 171.205861 
L 367.28568 171.460938 
L 366.576141 171.715682 
L 365.867283 171.970167 
L 365.158916 172.224463 
L 364.450847 172.478638 
L 363.742885 172.732759 
L 363.034832 172.986891 
L 362.326483 173.241103 
L 361.617619 173.495462 
L 360.908005 173.750039 
L 360.197379 174.004908 
L 359.485445 174.260149 
L 358.771858 174.515847 
L 358.0562 174.772094 
L 357.337947 175.028993 
L 356.616408 175.286651 
L 355.890607 175.545173 
L 355.159039 175.804616 
L 354.419069 176.064849 
L 353.661885 176.324141 
L 352.891395 176.562228 
L 352.126752 176.775931 
L 351.373132 176.982907 
L 350.626432 177.186215 
L 349.884837 177.38719 
L 349.14721 177.586531 
L 348.412763 177.784655 
L 347.680912 177.98184 
L 346.951202 178.178284 
L 346.223264 178.374137 
L 345.496786 178.569517 
L 344.771498 178.764522 
L 344.047161 178.959234 
L 343.323558 179.153724 
L 342.600488 179.348055 
L 341.87776 179.542285 
L 341.155193 179.736468 
L 340.43261 179.930652 
L 339.709833 180.124886 
L 338.986686 180.319216 
L 338.262988 180.513686 
L 337.53855 180.708343 
L 336.813172 180.903232 
L 336.086642 181.098398 
L 335.358723 181.293891 
L 334.629155 181.489759 
L 333.89764 181.686056 
L 333.163829 181.882837 
L 332.427304 182.08016 
L 331.687547 182.278086 
L 330.943889 182.476672 
L 330.195428 182.675963 
L 329.440859 182.875956 
L 328.678134 183.076504 
L 327.903562 183.277036 
L 327.104856 183.470615 
L 326.294913 183.634232 
L 325.499095 183.77036 
L 324.716813 183.900023 
L 323.943464 184.026146 
L 323.176791 184.150054 
L 322.415383 184.272433 
L 321.658271 184.393685 
L 320.90475 184.514071 
L 320.154281 184.633771 
L 319.406437 184.752915 
L 318.660866 184.871604 
L 317.917274 184.989919 
L 317.17541 185.107922 
L 316.435053 185.225667 
L 315.696009 185.3432 
L 314.958102 185.46056 
L 314.221171 185.577781 
L 313.485069 185.694894 
L 312.749656 185.811926 
L 312.014802 185.928902 
L 311.28038 186.045845 
L 310.546271 186.162776 
L 309.812355 186.279716 
L 309.078513 186.396683 
L 308.344627 186.513696 
L 307.610577 186.630771 
L 306.876238 186.747926 
L 306.14148 186.865177 
L 305.406164 186.98254 
L 304.670138 187.100029 
L 303.933237 187.217659 
L 303.195269 187.335443 
L 302.456014 187.453394 
L 301.715209 187.571517 
L 300.972521 187.689814 
L 300.227522 187.808269 
L 299.47962 187.926836 
L 298.727933 188.045386 
L 297.971002 188.163583 
L 297.205442 188.28071 
L 296.429909 188.384446 
L 295.656834 188.471706 
L 294.893788 188.553868 
L 294.136083 188.634112 
L 293.382232 188.713261 
L 292.631348 188.791716 
L 291.882834 188.8697 
L 291.136263 188.947348 
L 290.391309 189.024752 
L 289.647712 189.101979 
L 288.905261 189.179075 
L 288.163777 189.256078 
L 287.423104 189.333019 
L 286.683104 189.409923 
L 285.943656 189.486809 
L 285.204644 189.563696 
L 284.465964 189.640598 
L 283.727515 189.717531 
L 282.989201 189.794504 
L 282.250929 189.87153 
L 281.512606 189.948619 
L 280.774138 190.025779 
L 280.035431 190.103018 
L 279.296386 190.180346 
L 278.556899 190.257769 
L 277.816862 190.335292 
L 277.076153 190.412924 
L 276.334643 190.490667 
L 275.592182 190.568526 
L 274.848601 190.646504 
L 274.103704 190.724599 
L 273.357254 190.802808 
L 272.608961 190.88112 
L 271.85846 190.959513 
L 271.105268 191.037944 
L 270.348725 191.116329 
L 269.58786 191.194494 
L 268.821131 191.272048 
L 268.045693 191.348043 
L 267.253895 191.413573 
L 266.459867 191.455892 
L 265.680941 191.482293 
L 264.912442 191.505632 
L 264.151241 191.527419 
L 263.395722 191.548327 
L 262.644883 191.568692 
L 261.898047 191.588701 
L 261.154732 191.608467 
L 260.414581 191.628067 
L 259.677316 191.647553 
L 258.942723 191.666962 
L 258.21063 191.686324 
L 257.480896 191.705659 
L 256.75341 191.724985 
L 256.02808 191.744316 
L 255.30483 191.763664 
L 254.583601 191.783037 
L 253.864344 191.802443 
L 253.147025 191.82189 
L 252.431615 191.841384 
L 251.718097 191.860928 
L 251.006463 191.88053 
L 250.29671 191.900192 
L 249.588846 191.919918 
L 248.882887 191.939714 
L 248.178855 191.959583 
L 247.476784 191.979529 
L 246.776715 191.999556 
L 246.078703 192.019671 
L 245.382811 192.039878 
L 244.689122 192.060185 
L 243.997734 192.080601 
L 243.308768 192.101139 
L 242.622375 192.121815 
L 241.938747 192.142653 
L 241.258133 192.16369 
L 240.580865 192.184984 
L 239.907412 192.206638 
L 239.238483 192.22885 
L 238.575259 192.252058 
L 237.920715 192.277248 
L 237.273686 192.314753 
L 236.624083 192.365469 
L 235.967894 192.419366 
L 235.308567 192.474759 
L 234.647297 192.531044 
L 233.984813 192.587929 
L 233.321614 192.645252 
L 232.658069 192.702911 
L 231.994467 192.76084 
L 231.331047 192.818988 
L 230.668014 192.877319 
L 230.005547 192.935803 
L 229.343811 192.994418 
L 228.682961 193.053144 
L 228.023143 193.111962 
L 227.364502 193.170859 
L 226.707179 193.229821 
L 226.051318 193.288834 
L 225.397063 193.347889 
L 224.744568 193.406974 
L 224.093989 193.466079 
L 223.445495 193.525194 
L 222.799264 193.584311 
L 222.155491 193.64342 
L 221.514389 193.702516 
L 220.876194 193.76159 
L 220.241172 193.820637 
L 219.609624 193.879655 
L 218.981903 193.938643 
L 218.358422 193.997607 
L 217.739683 194.056561 
L 217.126306 194.115535 
L 216.519091 194.174586 
L 215.919107 194.233825 
L 215.327875 194.29348 
L 214.747741 194.354057 
L 214.182811 194.416827 
L 213.64507 194.490219 
L 213.120347 194.598642 
L 212.581137 194.739222 
L 212.026791 194.889382 
L 211.462241 195.045119 
L 210.890029 195.20461 
L 210.311787 195.366873 
L 209.728658 195.5313 
L 209.141495 195.697478 
L 208.550964 195.86511 
L 207.957608 196.033968 
L 207.361882 196.203868 
L 206.764177 196.374662 
L 206.16484 196.546222 
L 205.564182 196.718439 
L 204.962487 196.891214 
L 204.36002 197.064461 
L 203.757032 197.238097 
L 203.153763 197.412048 
L 202.550445 197.586241 
L 201.947306 197.760609 
L 201.344574 197.935083 
L 200.742475 198.1096 
L 200.141241 198.284094 
L 199.541108 198.458499 
L 198.942322 198.63275 
L 198.345137 198.806779 
L 197.749825 198.980515 
L 197.156675 199.153887 
L 196.565997 199.326817 
L 195.978131 199.499225 
L 195.393453 199.671022 
L 194.812383 199.842116 
L 194.235401 200.012404 
L 193.663058 200.181773 
L 193.096009 200.350099 
L 192.535042 200.517243 
L 191.981138 200.683049 
L 191.435564 200.84735 
L 190.900034 201.009969 
L 190.37702 201.170765 
L 189.870437 201.329769 
L 189.387499 201.487701 
L 188.948551 201.658725 
L 188.534909 201.878469 
L 188.106554 202.145643 
L 187.660599 202.432218 
L 187.201517 202.731424 
L 186.731934 203.039956 
L 186.253627 203.355882 
L 185.767879 203.677931 
L 185.275669 204.005199 
L 184.777775 204.337 
L 184.274835 204.672795 
L 183.767392 205.012141 
L 183.255914 205.354666 
L 182.740816 205.700047 
L 182.222472 206.048001 
L 181.701227 206.398272 
L 181.177401 206.750625 
L 180.651299 207.104842 
L 180.123213 207.460716 
L 179.593429 207.818049 
L 179.062229 208.176648 
L 178.5299 208.536321 
L 177.996729 208.896876 
L 177.46302 209.258117 
L 176.929087 209.619844 
L 176.395272 209.981842 
L 175.861945 210.343885 
L 175.329522 210.705725 
L 174.798478 211.067088 
L 174.269375 211.42766 
L 173.742899 211.787077 
L 173.219925 212.144898 
L 172.701638 212.500578 
L 172.189767 212.853414 
L 171.687146 213.202478 
L 171.199359 213.546536 
L 170.744437 213.89413 
L 170.312636 214.272937 
L 169.874765 214.685954 
L 169.426987 215.114328 
L 168.971523 215.553044 
L 168.509792 215.999595 
L 168.042793 216.452475 
L 167.571272 216.910665 
L 167.095814 217.373414 
L 166.616902 217.84014 
L 166.134943 218.310366 
L 165.650296 218.783688 
L 165.163282 219.259754 
L 164.674196 219.738246 
L 164.183312 220.218877 
L 163.690893 220.701373 
L 163.197194 221.185477 
L 162.702464 221.670939 
L 162.206952 222.157512 
L 161.710909 222.644952 
L 161.214592 223.133011 
L 160.718267 223.621435 
L 160.222216 224.109959 
L 159.726737 224.598307 
L 159.232153 225.086183 
L 158.738822 225.573266 
L 158.247141 226.059203 
L 157.757569 226.543597 
L 157.270641 227.025994 
L 156.787006 227.505863 
L 156.307477 227.982559 
L 155.833123 228.455279 
L 155.365449 228.922968 
L 154.906769 229.384171 
L 154.461201 229.836735 
L 154.038393 230.276544 
L 153.663261 230.726596 
L 153.316345 231.217793 
L 152.960875 231.742538 
L 152.598274 232.284743 
L 152.229907 232.839242 
L 151.856814 233.40318 
L 151.479793 233.974708 
L 151.099477 234.552502 
L 150.716396 235.135537 
L 150.331004 235.722978 
L 149.943712 236.314106 
L 149.554897 236.908283 
L 149.164921 237.504921 
L 148.774137 238.103459 
L 148.382902 238.70335 
L 147.991585 239.304041 
L 147.600576 239.90496 
L 147.210305 240.5055 
L 146.821254 241.104995 
L 146.433985 241.702696 
L 146.049183 242.297722 
L 145.667721 242.889005 
L 145.290787 243.475171 
L 144.920143 244.054348 
L 144.558778 244.623746 
L 144.212974 245.178622 
L 143.909543 245.718775 
L 143.653313 246.284349 
L 143.410013 246.896627 
L 143.162807 247.534224 
L 142.91172 248.189218 
L 142.657193 248.857564 
L 142.399668 249.536756 
L 142.13953 250.22505 
L 141.877113 250.921129 
L 141.61271 251.623938 
L 141.346584 252.332591 
L 141.07898 253.046313 
L 140.810127 253.764405 
L 140.540248 254.48622 
L 140.269561 255.21114 
L 139.998287 255.93856 
L 139.726652 256.66788 
L 139.454891 257.398486 
L 139.183257 258.129741 
L 138.912024 258.860969 
L 138.641498 259.591435 
L 138.372027 260.320326 
L 138.104018 261.046718 
L 137.837964 261.769531 
L 137.574481 262.487464 
L 137.314382 263.19889 
L 137.058799 263.901667 
L 136.809465 264.592798 
L 136.569405 265.267672 
L 136.345236 265.918103 
L 136.170174 266.532265 
L 136.070077 267.161048 
L 136.009984 267.849144 
L 135.955001 268.576173 
L 135.901707 269.330787 
L 135.849012 270.107241 
L 135.796474 270.902017 
L 135.743886 271.712709 
L 135.691145 272.537545 
L 135.638196 273.375145 
L 135.585014 274.224393 
L 135.53159 275.084349 
L 135.477925 275.954202 
L 135.424028 276.833232 
L 135.369914 277.720783 
L 135.315601 278.616246 
L 135.261114 279.519039 
L 135.206481 280.428597 
L 135.151737 281.344351 
L 135.096924 282.265721 
L 135.042093 283.192092 
L 134.98731 284.122794 
L 134.932663 285.057066 
L 134.878273 285.994009 
L 134.82432 286.932496 
L 134.771095 287.87102 
L 134.719143 288.807353 
L 134.669722 289.737703 
L 134.626854 290.652678 
L 134.620498 291.558108 
L 134.651469 292.483864 
L 134.690104 293.439164 
L 134.731856 294.413714 
L 134.775464 295.403797 
L 134.820398 296.407303 
L 134.866377 297.422856 
L 134.913231 298.449474 
L 134.960849 299.486411 
L 135.00915 300.533077 
L 135.058074 301.588987 
L 135.107574 302.653733 
L 135.157614 303.726963 
L 135.208163 304.808369 
L 135.259194 305.897677 
L 135.310685 306.994639 
L 135.362618 308.09903 
L 135.414974 309.210644 
L 135.467738 310.329287 
L 135.520898 311.454779 
L 135.57444 312.586951 
L 135.628353 313.725639 
L 135.682628 314.870687 
L 135.737255 316.021943 
L 135.792226 317.179255 
L 135.847535 318.34247 
L 135.903179 319.511424 
L 135.959159 320.685935 
L 136.015493 321.865771 
L 136.07226 323.050554 
L 136.130422 324.23987 
L 136.190495 325.434807 
L 136.251578 326.636233 
L 136.313102 327.843586 
L 136.374987 329.056593 
L 136.437203 330.275075 
L 136.49973 331.498895 
L 136.562557 332.727936 
L 136.625673 333.962097 
L 136.68907 335.201283 
L 136.752741 336.445408 
L 136.816679 337.694389 
L 136.88088 338.948151 
L 136.945338 340.206619 
L 137.010046 341.469722 
L 137.075002 342.737394 
L 137.140199 344.009568 
L 137.205634 345.286182 
L 137.271303 346.567176 
L 137.3372 347.852493 
L 137.403322 349.142077 
L 137.469665 350.435878 
L 137.536224 351.733846 
L 137.602995 353.035939 
L 137.669974 354.342118 
L 137.737155 355.652355 
L 137.804531 356.966635 
L 137.872092 358.284963 
L 137.939818 359.607392 
L 138.007651 360.934082 
L 138.075035 362.265591 
L 138.140804 363.600916 
L 138.20536 364.938585 
L 138.269859 366.278748 
L 138.334425 367.621649 
L 138.399096 368.967363 
L 138.463887 370.315904 
L 138.528803 371.667255 
L 138.59385 373.021384 
L 138.659026 374.378243 
L 138.724333 375.737781 
L 138.789769 377.099934 
L 138.855333 378.464635 
L 138.921023 379.831808 
L 138.986838 381.201373 
L 139.052776 382.57324 
L 139.118834 383.94731 
L 139.185012 385.323473 
L 139.251307 386.701609 
L 139.31772 388.081579 
L 139.38425 389.463222 
L 139.450897 390.84635 
L 139.517668 392.230736 
L 139.58457 393.616092 
L 139.651622 395.002043 
L 139.718863 396.388059 
L 139.786388 397.773324 
L 139.854474 399.156368 
z
" style="fill:#ffffff;opacity:0.3;"/>
   </g>
   <g id="frame_border">
    <path clip-path="url(#pddda900752)" d="M 0 432 
L 495.085181 432 
L 495.085181 0 
L 0 0 
L 0 432 
" style="fill:none;opacity:0.3;stroke:#ffffff;stroke-linecap:square;"/>
   </g>
   <g id="matplotlib.axis_1"/>
   <g id="matplotlib.axis_2"/>
  </g>
 </g>
 <defs>
  <clipPath id="pddda900752">
   <rect height="432.0" width="495.085181218" x="0.0" y="0.0"/>
  </clipPath>
 </defs>
</svg>
